<mxfile host="app.diagrams.net" modified="2024-01-08T11:35:06.015Z" agent="Mozilla/5.0 (Windows NT 10.0; Win64; x64) AppleWebKit/537.36 (KHTML, like Gecko) Chrome/120.0.0.0 Safari/537.36" etag="A_r9D5kI5R9dIx_2TLcg" version="22.1.17" type="device">
  <diagram id="C5RBs43oDa-KdzZeNtuy" name="Page-1">
    <mxGraphModel dx="1593" dy="412" grid="1" gridSize="10" guides="1" tooltips="1" connect="1" arrows="1" fold="1" page="1" pageScale="1" pageWidth="827" pageHeight="1169" math="0" shadow="0">
      <root>
        <mxCell id="WIyWlLk6GJQsqaUBKTNV-0" />
        <mxCell id="WIyWlLk6GJQsqaUBKTNV-1" parent="WIyWlLk6GJQsqaUBKTNV-0" />
        <mxCell id="KiEubPg6pbGW4f_8EGCf-0" value="&lt;h1&gt;Federación de &lt;font color=&quot;#3399ff&quot;&gt;Parchís&lt;/font&gt;&lt;/h1&gt;&lt;div&gt;&lt;i&gt;&lt;font style=&quot;font-size: 14px;&quot;&gt;Entrega 2 - Diseño Lógico de Base de Datos&lt;/font&gt;&lt;/i&gt;&lt;br&gt;&lt;/div&gt;&lt;div&gt;&lt;br&gt;&lt;/div&gt;&lt;div style=&quot;font-size: 10px;&quot; align=&quot;right&quot;&gt;López Rey, Andy&lt;br&gt;&lt;/div&gt;&lt;p&gt;&lt;br&gt;&lt;font style=&quot;font-size: 10px;&quot;&gt;Diagrama Entidad-Relación Extendido&lt;br&gt;Modelo Relacional Normalizado&lt;/font&gt;&lt;br&gt;&lt;/p&gt;&lt;p&gt;&lt;br&gt;&lt;/p&gt;&lt;p&gt;&lt;br&gt;&lt;/p&gt;" style="text;html=1;strokeColor=none;fillColor=none;spacing=5;spacingTop=-20;whiteSpace=wrap;overflow=hidden;rounded=0;align=center;" parent="WIyWlLk6GJQsqaUBKTNV-1" vertex="1">
          <mxGeometry x="214" y="10" width="400" height="160" as="geometry" />
        </mxCell>
        <mxCell id="KiEubPg6pbGW4f_8EGCf-62" value="Persona" style="html=1;dashed=0;whiteSpace=wrap;fillColor=#dae8fc;strokeColor=#6c8ebf;" parent="WIyWlLk6GJQsqaUBKTNV-1" vertex="1">
          <mxGeometry x="360" y="511" width="120" height="50" as="geometry" />
        </mxCell>
        <mxCell id="KiEubPg6pbGW4f_8EGCf-63" value="&lt;div&gt;&lt;b&gt;Generalización / Especialización&lt;/b&gt;&lt;br&gt;&lt;/div&gt;&lt;div&gt;&lt;br&gt;&lt;/div&gt;&lt;div&gt;- Especialización (Superclase Personas se generan varias entidades hijas (Jugador, Árbitro)&lt;/div&gt;&lt;div&gt;- Disjunta/exclusiva. No se permite que un jugador participe como árbitro y&amp;nbsp; jugador a la vez&lt;/div&gt;&lt;div&gt;- Total. La entidad padre se ha de materializar en una de las entidades hijas sí o sí&lt;br&gt;Resultado: Disjunta exclusiva total&lt;br&gt;&lt;/div&gt;" style="text;html=1;strokeColor=none;fillColor=none;align=left;verticalAlign=middle;whiteSpace=wrap;rounded=0;" parent="WIyWlLk6GJQsqaUBKTNV-1" vertex="1">
          <mxGeometry y="204" width="226" height="160" as="geometry" />
        </mxCell>
        <mxCell id="KiEubPg6pbGW4f_8EGCf-64" style="edgeStyle=orthogonalEdgeStyle;rounded=0;orthogonalLoop=1;jettySize=auto;html=1;exitX=1;exitY=0.5;exitDx=0;exitDy=0;entryX=0;entryY=0.5;entryDx=0;entryDy=0;" parent="WIyWlLk6GJQsqaUBKTNV-1" source="KiEubPg6pbGW4f_8EGCf-72" target="KiEubPg6pbGW4f_8EGCf-69" edge="1">
          <mxGeometry relative="1" as="geometry" />
        </mxCell>
        <mxCell id="KiEubPg6pbGW4f_8EGCf-67" style="edgeStyle=orthogonalEdgeStyle;rounded=0;orthogonalLoop=1;jettySize=auto;html=1;exitX=1;exitY=0.5;exitDx=0;exitDy=0;entryX=0.5;entryY=0;entryDx=0;entryDy=0;" parent="WIyWlLk6GJQsqaUBKTNV-1" source="KiEubPg6pbGW4f_8EGCf-69" target="KiEubPg6pbGW4f_8EGCf-75" edge="1">
          <mxGeometry relative="1" as="geometry">
            <mxPoint x="520" y="701" as="targetPoint" />
          </mxGeometry>
        </mxCell>
        <mxCell id="KiEubPg6pbGW4f_8EGCf-68" style="edgeStyle=orthogonalEdgeStyle;rounded=0;orthogonalLoop=1;jettySize=auto;html=1;exitX=1;exitY=0.5;exitDx=0;exitDy=0;entryX=0.5;entryY=0;entryDx=0;entryDy=0;" parent="WIyWlLk6GJQsqaUBKTNV-1" source="KiEubPg6pbGW4f_8EGCf-69" target="KiEubPg6pbGW4f_8EGCf-74" edge="1">
          <mxGeometry relative="1" as="geometry">
            <mxPoint x="340" y="701" as="targetPoint" />
          </mxGeometry>
        </mxCell>
        <mxCell id="KiEubPg6pbGW4f_8EGCf-69" value="" style="triangle;whiteSpace=wrap;html=1;fillColor=#dae8fc;strokeColor=#6c8ebf;rotation=90;" parent="WIyWlLk6GJQsqaUBKTNV-1" vertex="1">
          <mxGeometry x="390" y="631" width="60" height="80" as="geometry" />
        </mxCell>
        <mxCell id="KiEubPg6pbGW4f_8EGCf-71" value="" style="edgeStyle=orthogonalEdgeStyle;rounded=0;orthogonalLoop=1;jettySize=auto;html=1;exitX=0.5;exitY=1;exitDx=0;exitDy=0;entryX=0;entryY=0.5;entryDx=0;entryDy=0;" parent="WIyWlLk6GJQsqaUBKTNV-1" source="KiEubPg6pbGW4f_8EGCf-62" target="KiEubPg6pbGW4f_8EGCf-72" edge="1">
          <mxGeometry relative="1" as="geometry">
            <mxPoint x="304" y="626" as="sourcePoint" />
            <mxPoint x="420" y="581" as="targetPoint" />
          </mxGeometry>
        </mxCell>
        <mxCell id="KiEubPg6pbGW4f_8EGCf-72" value="" style="ellipse;whiteSpace=wrap;html=1;fillColor=#dae8fc;strokeColor=#6c8ebf;rotation=90;" parent="WIyWlLk6GJQsqaUBKTNV-1" vertex="1">
          <mxGeometry x="405" y="581" width="30" height="20" as="geometry" />
        </mxCell>
        <mxCell id="KiEubPg6pbGW4f_8EGCf-74" value="Árbitro" style="html=1;dashed=0;whiteSpace=wrap;fillColor=#dae8fc;strokeColor=#6c8ebf;" parent="WIyWlLk6GJQsqaUBKTNV-1" vertex="1">
          <mxGeometry x="280" y="751" width="120" height="50" as="geometry" />
        </mxCell>
        <mxCell id="KiEubPg6pbGW4f_8EGCf-75" value="Jugador" style="html=1;dashed=0;whiteSpace=wrap;fillColor=#dae8fc;strokeColor=#6c8ebf;" parent="WIyWlLk6GJQsqaUBKTNV-1" vertex="1">
          <mxGeometry x="440" y="751" width="120" height="50" as="geometry" />
        </mxCell>
        <mxCell id="KiEubPg6pbGW4f_8EGCf-81" value="" style="curved=1;endArrow=classic;html=1;rounded=0;" parent="WIyWlLk6GJQsqaUBKTNV-1" edge="1">
          <mxGeometry width="50" height="50" relative="1" as="geometry">
            <mxPoint x="405" y="701" as="sourcePoint" />
            <mxPoint x="445" y="701" as="targetPoint" />
            <Array as="points">
              <mxPoint x="415" y="751" />
              <mxPoint x="425" y="751" />
              <mxPoint x="445" y="691" />
            </Array>
          </mxGeometry>
        </mxCell>
        <mxCell id="KiEubPg6pbGW4f_8EGCf-87" value="Federación" style="html=1;dashed=0;whiteSpace=wrap;fillColor=#dae8fc;strokeColor=#6c8ebf;" parent="WIyWlLk6GJQsqaUBKTNV-1" vertex="1">
          <mxGeometry x="680" y="511" width="120" height="50" as="geometry" />
        </mxCell>
        <mxCell id="KiEubPg6pbGW4f_8EGCf-88" value="Hotel" style="html=1;dashed=0;whiteSpace=wrap;fillColor=#dae8fc;strokeColor=#6c8ebf;" parent="WIyWlLk6GJQsqaUBKTNV-1" vertex="1">
          <mxGeometry x="-10" y="511" width="120" height="50" as="geometry" />
        </mxCell>
        <mxCell id="KiEubPg6pbGW4f_8EGCf-89" value="Hospeda" style="shape=rhombus;html=1;dashed=0;whiteSpace=wrap;perimeter=rhombusPerimeter;fillColor=#fff2cc;strokeColor=#d6b656;fontSize=8;" parent="WIyWlLk6GJQsqaUBKTNV-1" vertex="1">
          <mxGeometry x="230" y="511" width="60" height="50" as="geometry" />
        </mxCell>
        <mxCell id="KiEubPg6pbGW4f_8EGCf-90" value="Adscrito" style="shape=rhombus;html=1;dashed=0;whiteSpace=wrap;perimeter=rhombusPerimeter;fillColor=#fff2cc;strokeColor=#d6b656;fontSize=8;" parent="WIyWlLk6GJQsqaUBKTNV-1" vertex="1">
          <mxGeometry x="560" y="511" width="60" height="50" as="geometry" />
        </mxCell>
        <mxCell id="KiEubPg6pbGW4f_8EGCf-91" value="" style="endArrow=none;html=1;rounded=0;exitX=1;exitY=0.5;exitDx=0;exitDy=0;entryX=0;entryY=0.5;entryDx=0;entryDy=0;" parent="WIyWlLk6GJQsqaUBKTNV-1" source="KiEubPg6pbGW4f_8EGCf-89" target="KiEubPg6pbGW4f_8EGCf-62" edge="1">
          <mxGeometry relative="1" as="geometry">
            <mxPoint x="180" y="561" as="sourcePoint" />
            <mxPoint x="340" y="561" as="targetPoint" />
          </mxGeometry>
        </mxCell>
        <mxCell id="KiEubPg6pbGW4f_8EGCf-94" value="0:M" style="edgeLabel;html=1;align=center;verticalAlign=middle;resizable=0;points=[];" parent="KiEubPg6pbGW4f_8EGCf-91" vertex="1" connectable="0">
          <mxGeometry x="-0.0476" y="1" relative="1" as="geometry">
            <mxPoint as="offset" />
          </mxGeometry>
        </mxCell>
        <mxCell id="KiEubPg6pbGW4f_8EGCf-92" value="" style="endArrow=none;html=1;rounded=0;exitX=1;exitY=0.5;exitDx=0;exitDy=0;entryX=0;entryY=0.5;entryDx=0;entryDy=0;" parent="WIyWlLk6GJQsqaUBKTNV-1" source="KiEubPg6pbGW4f_8EGCf-88" target="KiEubPg6pbGW4f_8EGCf-89" edge="1">
          <mxGeometry relative="1" as="geometry">
            <mxPoint x="300" y="546" as="sourcePoint" />
            <mxPoint x="370" y="546" as="targetPoint" />
          </mxGeometry>
        </mxCell>
        <mxCell id="KiEubPg6pbGW4f_8EGCf-93" value="0:N" style="edgeLabel;html=1;align=center;verticalAlign=middle;resizable=0;points=[];" parent="KiEubPg6pbGW4f_8EGCf-92" vertex="1" connectable="0">
          <mxGeometry x="0.0762" relative="1" as="geometry">
            <mxPoint as="offset" />
          </mxGeometry>
        </mxCell>
        <mxCell id="KiEubPg6pbGW4f_8EGCf-95" value="Núm_Hab" style="ellipse;whiteSpace=wrap;html=1;align=center;fillColor=#d5e8d4;strokeColor=#82b366;" parent="WIyWlLk6GJQsqaUBKTNV-1" vertex="1">
          <mxGeometry x="210" y="601" width="100" height="40" as="geometry" />
        </mxCell>
        <mxCell id="KiEubPg6pbGW4f_8EGCf-96" value="F_Salida_Hab" style="ellipse;whiteSpace=wrap;html=1;align=center;fillColor=#d5e8d4;strokeColor=#82b366;" parent="WIyWlLk6GJQsqaUBKTNV-1" vertex="1">
          <mxGeometry x="260" y="441" width="100" height="40" as="geometry" />
        </mxCell>
        <mxCell id="KiEubPg6pbGW4f_8EGCf-97" value="F_Entrada_Hab" style="ellipse;whiteSpace=wrap;html=1;align=center;fillColor=#d5e8d4;strokeColor=#82b366;" parent="WIyWlLk6GJQsqaUBKTNV-1" vertex="1">
          <mxGeometry x="160" y="441" width="100" height="40" as="geometry" />
        </mxCell>
        <mxCell id="KiEubPg6pbGW4f_8EGCf-98" value="" style="endArrow=none;html=1;rounded=0;exitX=0.5;exitY=0;exitDx=0;exitDy=0;entryX=0.5;entryY=1;entryDx=0;entryDy=0;" parent="WIyWlLk6GJQsqaUBKTNV-1" source="KiEubPg6pbGW4f_8EGCf-95" target="KiEubPg6pbGW4f_8EGCf-89" edge="1">
          <mxGeometry relative="1" as="geometry">
            <mxPoint x="220" y="511" as="sourcePoint" />
            <mxPoint x="380" y="511" as="targetPoint" />
          </mxGeometry>
        </mxCell>
        <mxCell id="KiEubPg6pbGW4f_8EGCf-99" value="" style="endArrow=none;html=1;rounded=0;exitX=0.5;exitY=0;exitDx=0;exitDy=0;entryX=0.5;entryY=1;entryDx=0;entryDy=0;" parent="WIyWlLk6GJQsqaUBKTNV-1" source="KiEubPg6pbGW4f_8EGCf-89" target="KiEubPg6pbGW4f_8EGCf-97" edge="1">
          <mxGeometry relative="1" as="geometry">
            <mxPoint x="270" y="611" as="sourcePoint" />
            <mxPoint x="270" y="571" as="targetPoint" />
          </mxGeometry>
        </mxCell>
        <mxCell id="KiEubPg6pbGW4f_8EGCf-100" value="" style="endArrow=none;html=1;rounded=0;entryX=0.5;entryY=1;entryDx=0;entryDy=0;" parent="WIyWlLk6GJQsqaUBKTNV-1" target="KiEubPg6pbGW4f_8EGCf-96" edge="1">
          <mxGeometry relative="1" as="geometry">
            <mxPoint x="260" y="511" as="sourcePoint" />
            <mxPoint x="220" y="491" as="targetPoint" />
          </mxGeometry>
        </mxCell>
        <mxCell id="KiEubPg6pbGW4f_8EGCf-101" value="Nombre_Hotel" style="ellipse;whiteSpace=wrap;html=1;align=center;fillColor=#d5e8d4;strokeColor=#82b366;" parent="WIyWlLk6GJQsqaUBKTNV-1" vertex="1">
          <mxGeometry x="-190" y="456" width="100" height="40" as="geometry" />
        </mxCell>
        <mxCell id="KiEubPg6pbGW4f_8EGCf-102" value="ID_Hotel" style="ellipse;whiteSpace=wrap;html=1;align=center;fillColor=#f8cecc;strokeColor=#b85450;" parent="WIyWlLk6GJQsqaUBKTNV-1" vertex="1">
          <mxGeometry x="-190" y="416" width="100" height="40" as="geometry" />
        </mxCell>
        <mxCell id="KiEubPg6pbGW4f_8EGCf-103" value="Categoría" style="ellipse;whiteSpace=wrap;html=1;align=center;fillColor=#d5e8d4;strokeColor=#82b366;" parent="WIyWlLk6GJQsqaUBKTNV-1" vertex="1">
          <mxGeometry x="-190" y="496" width="100" height="40" as="geometry" />
        </mxCell>
        <mxCell id="KiEubPg6pbGW4f_8EGCf-104" value="Dirección" style="ellipse;whiteSpace=wrap;html=1;align=center;fillColor=#d5e8d4;strokeColor=#82b366;" parent="WIyWlLk6GJQsqaUBKTNV-1" vertex="1">
          <mxGeometry x="-190" y="536" width="100" height="40" as="geometry" />
        </mxCell>
        <mxCell id="KiEubPg6pbGW4f_8EGCf-105" value="Teléfonos" style="ellipse;shape=doubleEllipse;margin=3;whiteSpace=wrap;html=1;align=center;fillColor=#d5e8d4;strokeColor=#82b366;" parent="WIyWlLk6GJQsqaUBKTNV-1" vertex="1">
          <mxGeometry x="-190" y="576" width="100" height="40" as="geometry" />
        </mxCell>
        <mxCell id="KiEubPg6pbGW4f_8EGCf-106" value="Núm_T_Habs" style="ellipse;whiteSpace=wrap;html=1;align=center;fillColor=#d5e8d4;strokeColor=#82b366;" parent="WIyWlLk6GJQsqaUBKTNV-1" vertex="1">
          <mxGeometry x="-190" y="616" width="100" height="40" as="geometry" />
        </mxCell>
        <mxCell id="KiEubPg6pbGW4f_8EGCf-107" value="" style="endArrow=none;html=1;rounded=0;" parent="WIyWlLk6GJQsqaUBKTNV-1" edge="1">
          <mxGeometry relative="1" as="geometry">
            <mxPoint x="-50" y="433" as="sourcePoint" />
            <mxPoint x="-50" y="639" as="targetPoint" />
          </mxGeometry>
        </mxCell>
        <mxCell id="KiEubPg6pbGW4f_8EGCf-108" value="" style="endArrow=none;html=1;rounded=0;entryX=0;entryY=0.5;entryDx=0;entryDy=0;" parent="WIyWlLk6GJQsqaUBKTNV-1" target="KiEubPg6pbGW4f_8EGCf-88" edge="1">
          <mxGeometry relative="1" as="geometry">
            <mxPoint x="-50" y="536" as="sourcePoint" />
            <mxPoint x="100" y="541" as="targetPoint" />
          </mxGeometry>
        </mxCell>
        <mxCell id="KiEubPg6pbGW4f_8EGCf-112" value="" style="endArrow=none;html=1;rounded=0;exitX=1;exitY=0.5;exitDx=0;exitDy=0;" parent="WIyWlLk6GJQsqaUBKTNV-1" source="KiEubPg6pbGW4f_8EGCf-102" edge="1">
          <mxGeometry relative="1" as="geometry">
            <mxPoint x="-40" y="546" as="sourcePoint" />
            <mxPoint x="-50" y="436" as="targetPoint" />
          </mxGeometry>
        </mxCell>
        <mxCell id="KiEubPg6pbGW4f_8EGCf-113" value="" style="endArrow=none;html=1;rounded=0;exitX=1;exitY=0.5;exitDx=0;exitDy=0;" parent="WIyWlLk6GJQsqaUBKTNV-1" edge="1">
          <mxGeometry relative="1" as="geometry">
            <mxPoint x="-90" y="475.93000000000006" as="sourcePoint" />
            <mxPoint x="-50" y="475.93000000000006" as="targetPoint" />
          </mxGeometry>
        </mxCell>
        <mxCell id="KiEubPg6pbGW4f_8EGCf-114" value="" style="endArrow=none;html=1;rounded=0;exitX=1;exitY=0.5;exitDx=0;exitDy=0;" parent="WIyWlLk6GJQsqaUBKTNV-1" edge="1">
          <mxGeometry relative="1" as="geometry">
            <mxPoint x="-90" y="515.9300000000001" as="sourcePoint" />
            <mxPoint x="-50" y="515.9300000000001" as="targetPoint" />
          </mxGeometry>
        </mxCell>
        <mxCell id="KiEubPg6pbGW4f_8EGCf-115" value="" style="endArrow=none;html=1;rounded=0;exitX=1;exitY=0.5;exitDx=0;exitDy=0;" parent="WIyWlLk6GJQsqaUBKTNV-1" edge="1">
          <mxGeometry relative="1" as="geometry">
            <mxPoint x="-90" y="555.9300000000001" as="sourcePoint" />
            <mxPoint x="-50" y="555.9300000000001" as="targetPoint" />
          </mxGeometry>
        </mxCell>
        <mxCell id="KiEubPg6pbGW4f_8EGCf-116" value="" style="endArrow=none;html=1;rounded=0;exitX=1;exitY=0.5;exitDx=0;exitDy=0;" parent="WIyWlLk6GJQsqaUBKTNV-1" edge="1">
          <mxGeometry relative="1" as="geometry">
            <mxPoint x="-90" y="595.9300000000001" as="sourcePoint" />
            <mxPoint x="-50" y="595.9300000000001" as="targetPoint" />
          </mxGeometry>
        </mxCell>
        <mxCell id="KiEubPg6pbGW4f_8EGCf-176" value="N" style="edgeLabel;html=1;align=center;verticalAlign=middle;resizable=0;points=[];" parent="KiEubPg6pbGW4f_8EGCf-116" vertex="1" connectable="0">
          <mxGeometry x="-0.0405" relative="1" as="geometry">
            <mxPoint as="offset" />
          </mxGeometry>
        </mxCell>
        <mxCell id="KiEubPg6pbGW4f_8EGCf-117" value="" style="endArrow=none;html=1;rounded=0;exitX=1;exitY=0.5;exitDx=0;exitDy=0;" parent="WIyWlLk6GJQsqaUBKTNV-1" edge="1">
          <mxGeometry relative="1" as="geometry">
            <mxPoint x="-90" y="635.9300000000001" as="sourcePoint" />
            <mxPoint x="-50" y="635.9300000000001" as="targetPoint" />
          </mxGeometry>
        </mxCell>
        <mxCell id="KiEubPg6pbGW4f_8EGCf-120" value="Nombre" style="ellipse;whiteSpace=wrap;html=1;align=center;fillColor=#d5e8d4;strokeColor=#82b366;" parent="WIyWlLk6GJQsqaUBKTNV-1" vertex="1">
          <mxGeometry x="380" y="370" width="100" height="40" as="geometry" />
        </mxCell>
        <mxCell id="KiEubPg6pbGW4f_8EGCf-121" value="Apellido_1" style="ellipse;whiteSpace=wrap;html=1;align=center;fillColor=#d5e8d4;strokeColor=#82b366;" parent="WIyWlLk6GJQsqaUBKTNV-1" vertex="1">
          <mxGeometry x="380" y="330" width="100" height="40" as="geometry" />
        </mxCell>
        <mxCell id="KiEubPg6pbGW4f_8EGCf-122" value="Apellido_2" style="ellipse;whiteSpace=wrap;html=1;align=center;fillColor=#d5e8d4;strokeColor=#82b366;" parent="WIyWlLk6GJQsqaUBKTNV-1" vertex="1">
          <mxGeometry x="380" y="290" width="100" height="40" as="geometry" />
        </mxCell>
        <mxCell id="KiEubPg6pbGW4f_8EGCf-123" value="F_Nacim" style="ellipse;whiteSpace=wrap;html=1;align=center;fillColor=#d5e8d4;strokeColor=#82b366;" parent="WIyWlLk6GJQsqaUBKTNV-1" vertex="1">
          <mxGeometry x="560" y="370" width="100" height="40" as="geometry" />
        </mxCell>
        <mxCell id="KiEubPg6pbGW4f_8EGCf-125" value="Teléfonos" style="ellipse;shape=doubleEllipse;margin=3;whiteSpace=wrap;html=1;align=center;fillColor=#d5e8d4;strokeColor=#82b366;" parent="WIyWlLk6GJQsqaUBKTNV-1" vertex="1">
          <mxGeometry x="560" y="330" width="100" height="40" as="geometry" />
        </mxCell>
        <mxCell id="KiEubPg6pbGW4f_8EGCf-136" value="" style="endArrow=none;html=1;rounded=0;exitX=0.5;exitY=0;exitDx=0;exitDy=0;" parent="WIyWlLk6GJQsqaUBKTNV-1" source="KiEubPg6pbGW4f_8EGCf-62" edge="1">
          <mxGeometry relative="1" as="geometry">
            <mxPoint x="460" y="441" as="sourcePoint" />
            <mxPoint x="420" y="441" as="targetPoint" />
          </mxGeometry>
        </mxCell>
        <mxCell id="KiEubPg6pbGW4f_8EGCf-137" value="" style="endArrow=none;html=1;rounded=0;" parent="WIyWlLk6GJQsqaUBKTNV-1" edge="1">
          <mxGeometry relative="1" as="geometry">
            <mxPoint x="520" y="441" as="sourcePoint" />
            <mxPoint x="420" y="441" as="targetPoint" />
          </mxGeometry>
        </mxCell>
        <mxCell id="KiEubPg6pbGW4f_8EGCf-138" value="" style="endArrow=none;html=1;rounded=0;exitX=0.5;exitY=0;exitDx=0;exitDy=0;" parent="WIyWlLk6GJQsqaUBKTNV-1" edge="1">
          <mxGeometry relative="1" as="geometry">
            <mxPoint x="520" y="441" as="sourcePoint" />
            <mxPoint x="520" y="310" as="targetPoint" />
          </mxGeometry>
        </mxCell>
        <mxCell id="KiEubPg6pbGW4f_8EGCf-139" value="" style="endArrow=none;html=1;rounded=0;exitX=1;exitY=0.5;exitDx=0;exitDy=0;" parent="WIyWlLk6GJQsqaUBKTNV-1" source="KiEubPg6pbGW4f_8EGCf-120" edge="1">
          <mxGeometry relative="1" as="geometry">
            <mxPoint x="460" y="381" as="sourcePoint" />
            <mxPoint x="520" y="390" as="targetPoint" />
          </mxGeometry>
        </mxCell>
        <mxCell id="KiEubPg6pbGW4f_8EGCf-141" value="" style="endArrow=none;html=1;rounded=0;exitX=1;exitY=0.5;exitDx=0;exitDy=0;" parent="WIyWlLk6GJQsqaUBKTNV-1" edge="1">
          <mxGeometry relative="1" as="geometry">
            <mxPoint x="480" y="349.9200000000001" as="sourcePoint" />
            <mxPoint x="520" y="349.9200000000001" as="targetPoint" />
          </mxGeometry>
        </mxCell>
        <mxCell id="KiEubPg6pbGW4f_8EGCf-142" value="" style="endArrow=none;html=1;rounded=0;exitX=1;exitY=0.5;exitDx=0;exitDy=0;" parent="WIyWlLk6GJQsqaUBKTNV-1" edge="1">
          <mxGeometry relative="1" as="geometry">
            <mxPoint x="480" y="309.9200000000001" as="sourcePoint" />
            <mxPoint x="520" y="309.9200000000001" as="targetPoint" />
          </mxGeometry>
        </mxCell>
        <mxCell id="KiEubPg6pbGW4f_8EGCf-143" value="" style="endArrow=none;html=1;rounded=0;exitX=1;exitY=0.5;exitDx=0;exitDy=0;" parent="WIyWlLk6GJQsqaUBKTNV-1" edge="1">
          <mxGeometry relative="1" as="geometry">
            <mxPoint x="520" y="389.9200000000001" as="sourcePoint" />
            <mxPoint x="560" y="389.9200000000001" as="targetPoint" />
          </mxGeometry>
        </mxCell>
        <mxCell id="KiEubPg6pbGW4f_8EGCf-144" value="" style="endArrow=none;html=1;rounded=0;exitX=1;exitY=0.5;exitDx=0;exitDy=0;" parent="WIyWlLk6GJQsqaUBKTNV-1" edge="1">
          <mxGeometry relative="1" as="geometry">
            <mxPoint x="520" y="349.9200000000001" as="sourcePoint" />
            <mxPoint x="560" y="349.9200000000001" as="targetPoint" />
          </mxGeometry>
        </mxCell>
        <mxCell id="KiEubPg6pbGW4f_8EGCf-175" value="N" style="edgeLabel;html=1;align=center;verticalAlign=middle;resizable=0;points=[];" parent="KiEubPg6pbGW4f_8EGCf-144" vertex="1" connectable="0">
          <mxGeometry x="0.0548" y="-1" relative="1" as="geometry">
            <mxPoint as="offset" />
          </mxGeometry>
        </mxCell>
        <mxCell id="KiEubPg6pbGW4f_8EGCf-145" value="" style="endArrow=none;html=1;rounded=0;entryX=0;entryY=0.5;entryDx=0;entryDy=0;exitX=1;exitY=0.5;exitDx=0;exitDy=0;" parent="WIyWlLk6GJQsqaUBKTNV-1" source="KiEubPg6pbGW4f_8EGCf-90" target="KiEubPg6pbGW4f_8EGCf-87" edge="1">
          <mxGeometry relative="1" as="geometry">
            <mxPoint x="430" y="541" as="sourcePoint" />
            <mxPoint x="590" y="541" as="targetPoint" />
          </mxGeometry>
        </mxCell>
        <mxCell id="KiEubPg6pbGW4f_8EGCf-147" value="1:1" style="edgeLabel;html=1;align=center;verticalAlign=middle;resizable=0;points=[];" parent="KiEubPg6pbGW4f_8EGCf-145" vertex="1" connectable="0">
          <mxGeometry x="0.0256" relative="1" as="geometry">
            <mxPoint as="offset" />
          </mxGeometry>
        </mxCell>
        <mxCell id="KiEubPg6pbGW4f_8EGCf-146" value="" style="endArrow=none;html=1;rounded=0;entryX=0;entryY=0.5;entryDx=0;entryDy=0;exitX=1;exitY=0.5;exitDx=0;exitDy=0;" parent="WIyWlLk6GJQsqaUBKTNV-1" source="KiEubPg6pbGW4f_8EGCf-62" target="KiEubPg6pbGW4f_8EGCf-90" edge="1">
          <mxGeometry relative="1" as="geometry">
            <mxPoint x="630" y="546" as="sourcePoint" />
            <mxPoint x="690" y="546" as="targetPoint" />
          </mxGeometry>
        </mxCell>
        <mxCell id="KiEubPg6pbGW4f_8EGCf-148" value="1:N" style="edgeLabel;html=1;align=center;verticalAlign=middle;resizable=0;points=[];" parent="KiEubPg6pbGW4f_8EGCf-146" vertex="1" connectable="0">
          <mxGeometry x="0.0017" y="1" relative="1" as="geometry">
            <mxPoint as="offset" />
          </mxGeometry>
        </mxCell>
        <mxCell id="KiEubPg6pbGW4f_8EGCf-149" value="ID_Federación" style="ellipse;whiteSpace=wrap;html=1;align=center;fillColor=#f8cecc;strokeColor=#b85450;" parent="WIyWlLk6GJQsqaUBKTNV-1" vertex="1">
          <mxGeometry x="880" y="436" width="100" height="40" as="geometry" />
        </mxCell>
        <mxCell id="KiEubPg6pbGW4f_8EGCf-150" value="Nombre_Región" style="ellipse;whiteSpace=wrap;html=1;align=center;fillColor=#d5e8d4;strokeColor=#82b366;" parent="WIyWlLk6GJQsqaUBKTNV-1" vertex="1">
          <mxGeometry x="880" y="476" width="100" height="40" as="geometry" />
        </mxCell>
        <mxCell id="KiEubPg6pbGW4f_8EGCf-151" value="F_Fundación" style="ellipse;whiteSpace=wrap;html=1;align=center;fillColor=#d5e8d4;strokeColor=#82b366;" parent="WIyWlLk6GJQsqaUBKTNV-1" vertex="1">
          <mxGeometry x="880" y="516" width="100" height="40" as="geometry" />
        </mxCell>
        <mxCell id="KiEubPg6pbGW4f_8EGCf-152" value="Núm_T_Jugad" style="ellipse;whiteSpace=wrap;html=1;align=center;fillColor=#d5e8d4;strokeColor=#82b366;" parent="WIyWlLk6GJQsqaUBKTNV-1" vertex="1">
          <mxGeometry x="880" y="556" width="100" height="40" as="geometry" />
        </mxCell>
        <mxCell id="KiEubPg6pbGW4f_8EGCf-153" value="Núm_T_Árb" style="ellipse;whiteSpace=wrap;html=1;align=center;fillColor=#d5e8d4;strokeColor=#82b366;" parent="WIyWlLk6GJQsqaUBKTNV-1" vertex="1">
          <mxGeometry x="880" y="596" width="100" height="40" as="geometry" />
        </mxCell>
        <mxCell id="KiEubPg6pbGW4f_8EGCf-154" value="" style="endArrow=none;html=1;rounded=0;exitX=1;exitY=0.5;exitDx=0;exitDy=0;" parent="WIyWlLk6GJQsqaUBKTNV-1" source="KiEubPg6pbGW4f_8EGCf-87" edge="1">
          <mxGeometry relative="1" as="geometry">
            <mxPoint x="740" y="541" as="sourcePoint" />
            <mxPoint x="830" y="536" as="targetPoint" />
          </mxGeometry>
        </mxCell>
        <mxCell id="KiEubPg6pbGW4f_8EGCf-155" value="" style="endArrow=none;html=1;rounded=0;" parent="WIyWlLk6GJQsqaUBKTNV-1" edge="1">
          <mxGeometry relative="1" as="geometry">
            <mxPoint x="830" y="456" as="sourcePoint" />
            <mxPoint x="830" y="616" as="targetPoint" />
          </mxGeometry>
        </mxCell>
        <mxCell id="KiEubPg6pbGW4f_8EGCf-158" value="" style="endArrow=none;html=1;rounded=0;entryX=0;entryY=0.5;entryDx=0;entryDy=0;" parent="WIyWlLk6GJQsqaUBKTNV-1" target="KiEubPg6pbGW4f_8EGCf-149" edge="1">
          <mxGeometry relative="1" as="geometry">
            <mxPoint x="830" y="456" as="sourcePoint" />
            <mxPoint x="840" y="546" as="targetPoint" />
          </mxGeometry>
        </mxCell>
        <mxCell id="KiEubPg6pbGW4f_8EGCf-159" value="" style="endArrow=none;html=1;rounded=0;entryX=0;entryY=0.5;entryDx=0;entryDy=0;" parent="WIyWlLk6GJQsqaUBKTNV-1" edge="1">
          <mxGeometry relative="1" as="geometry">
            <mxPoint x="830" y="496" as="sourcePoint" />
            <mxPoint x="880" y="496" as="targetPoint" />
          </mxGeometry>
        </mxCell>
        <mxCell id="KiEubPg6pbGW4f_8EGCf-160" value="" style="endArrow=none;html=1;rounded=0;entryX=0;entryY=0.5;entryDx=0;entryDy=0;" parent="WIyWlLk6GJQsqaUBKTNV-1" edge="1">
          <mxGeometry relative="1" as="geometry">
            <mxPoint x="830" y="535.8399999999999" as="sourcePoint" />
            <mxPoint x="880" y="535.8399999999999" as="targetPoint" />
          </mxGeometry>
        </mxCell>
        <mxCell id="KiEubPg6pbGW4f_8EGCf-161" value="" style="endArrow=none;html=1;rounded=0;entryX=0;entryY=0.5;entryDx=0;entryDy=0;" parent="WIyWlLk6GJQsqaUBKTNV-1" edge="1">
          <mxGeometry relative="1" as="geometry">
            <mxPoint x="830" y="576" as="sourcePoint" />
            <mxPoint x="880" y="576" as="targetPoint" />
          </mxGeometry>
        </mxCell>
        <mxCell id="KiEubPg6pbGW4f_8EGCf-162" value="" style="endArrow=none;html=1;rounded=0;entryX=0;entryY=0.5;entryDx=0;entryDy=0;" parent="WIyWlLk6GJQsqaUBKTNV-1" edge="1">
          <mxGeometry relative="1" as="geometry">
            <mxPoint x="830" y="616" as="sourcePoint" />
            <mxPoint x="880" y="616" as="targetPoint" />
          </mxGeometry>
        </mxCell>
        <mxCell id="KiEubPg6pbGW4f_8EGCf-163" value="" style="endArrow=none;html=1;rounded=0;entryX=0;entryY=0.5;entryDx=0;entryDy=0;" parent="WIyWlLk6GJQsqaUBKTNV-1" target="KiEubPg6pbGW4f_8EGCf-74" edge="1">
          <mxGeometry relative="1" as="geometry">
            <mxPoint x="240" y="776" as="sourcePoint" />
            <mxPoint x="320" y="761" as="targetPoint" />
          </mxGeometry>
        </mxCell>
        <mxCell id="KiEubPg6pbGW4f_8EGCf-166" value="" style="endArrow=none;html=1;rounded=0;exitX=1;exitY=0.5;exitDx=0;exitDy=0;" parent="WIyWlLk6GJQsqaUBKTNV-1" edge="1">
          <mxGeometry relative="1" as="geometry">
            <mxPoint x="200" y="735.9200000000001" as="sourcePoint" />
            <mxPoint x="240" y="735.9200000000001" as="targetPoint" />
          </mxGeometry>
        </mxCell>
        <mxCell id="KiEubPg6pbGW4f_8EGCf-167" value="" style="endArrow=none;html=1;rounded=0;exitX=1;exitY=0.5;exitDx=0;exitDy=0;" parent="WIyWlLk6GJQsqaUBKTNV-1" edge="1">
          <mxGeometry relative="1" as="geometry">
            <mxPoint x="200" y="775.9200000000001" as="sourcePoint" />
            <mxPoint x="240" y="775.9200000000001" as="targetPoint" />
          </mxGeometry>
        </mxCell>
        <mxCell id="KiEubPg6pbGW4f_8EGCf-168" value="" style="endArrow=none;html=1;rounded=0;exitX=1;exitY=0.5;exitDx=0;exitDy=0;" parent="WIyWlLk6GJQsqaUBKTNV-1" edge="1">
          <mxGeometry relative="1" as="geometry">
            <mxPoint x="200" y="815.9200000000001" as="sourcePoint" />
            <mxPoint x="240" y="815.9200000000001" as="targetPoint" />
          </mxGeometry>
        </mxCell>
        <mxCell id="KiEubPg6pbGW4f_8EGCf-177" value="DNI" style="ellipse;whiteSpace=wrap;html=1;align=center;fillColor=#f8cecc;strokeColor=#b85450;" parent="WIyWlLk6GJQsqaUBKTNV-1" vertex="1">
          <mxGeometry x="560" y="290" width="100" height="40" as="geometry" />
        </mxCell>
        <mxCell id="KiEubPg6pbGW4f_8EGCf-178" value="" style="endArrow=none;html=1;rounded=0;exitX=1;exitY=0.5;exitDx=0;exitDy=0;" parent="WIyWlLk6GJQsqaUBKTNV-1" edge="1">
          <mxGeometry relative="1" as="geometry">
            <mxPoint x="520" y="309.8900000000001" as="sourcePoint" />
            <mxPoint x="560" y="309.8900000000001" as="targetPoint" />
          </mxGeometry>
        </mxCell>
        <mxCell id="KiEubPg6pbGW4f_8EGCf-180" value="Partida" style="html=1;dashed=0;whiteSpace=wrap;fillColor=#dae8fc;strokeColor=#6c8ebf;" parent="WIyWlLk6GJQsqaUBKTNV-1" vertex="1">
          <mxGeometry x="360" y="950" width="120" height="50" as="geometry" />
        </mxCell>
        <mxCell id="KiEubPg6pbGW4f_8EGCf-181" value="Movimiento" style="shape=ext;margin=3;double=1;whiteSpace=wrap;html=1;align=center;fillColor=#dae8fc;strokeColor=#6c8ebf;" parent="WIyWlLk6GJQsqaUBKTNV-1" vertex="1">
          <mxGeometry x="360" y="1116" width="120" height="50" as="geometry" />
        </mxCell>
        <mxCell id="KiEubPg6pbGW4f_8EGCf-182" value="ID_Partida" style="ellipse;whiteSpace=wrap;html=1;align=center;fillColor=#f8cecc;strokeColor=#b85450;" parent="WIyWlLk6GJQsqaUBKTNV-1" vertex="1">
          <mxGeometry x="640" y="915" width="100" height="40" as="geometry" />
        </mxCell>
        <mxCell id="KiEubPg6pbGW4f_8EGCf-184" value="Duración" style="ellipse;whiteSpace=wrap;html=1;align=center;fillColor=#d5e8d4;strokeColor=#82b366;" parent="WIyWlLk6GJQsqaUBKTNV-1" vertex="1">
          <mxGeometry x="640" y="995" width="100" height="40" as="geometry" />
        </mxCell>
        <mxCell id="KiEubPg6pbGW4f_8EGCf-186" value="Capacidad_Sala" style="ellipse;whiteSpace=wrap;html=1;align=center;fillColor=#d5e8d4;strokeColor=#82b366;" parent="WIyWlLk6GJQsqaUBKTNV-1" vertex="1">
          <mxGeometry x="-190" y="955" width="100" height="40" as="geometry" />
        </mxCell>
        <mxCell id="KiEubPg6pbGW4f_8EGCf-187" value="Descripción" style="ellipse;whiteSpace=wrap;html=1;align=center;fillColor=#d5e8d4;strokeColor=#82b366;" parent="WIyWlLk6GJQsqaUBKTNV-1" vertex="1">
          <mxGeometry x="-190" y="995" width="100" height="40" as="geometry" />
        </mxCell>
        <mxCell id="KiEubPg6pbGW4f_8EGCf-189" value="Núm_Casilla_I" style="ellipse;whiteSpace=wrap;html=1;align=center;fillColor=#d5e8d4;strokeColor=#82b366;" parent="WIyWlLk6GJQsqaUBKTNV-1" vertex="1">
          <mxGeometry x="320" y="1281" width="100" height="40" as="geometry" />
        </mxCell>
        <mxCell id="KiEubPg6pbGW4f_8EGCf-190" value="Núm_Casilla_F" style="ellipse;whiteSpace=wrap;html=1;align=center;fillColor=#d5e8d4;strokeColor=#82b366;" parent="WIyWlLk6GJQsqaUBKTNV-1" vertex="1">
          <mxGeometry x="420" y="1281" width="100" height="40" as="geometry" />
        </mxCell>
        <mxCell id="KiEubPg6pbGW4f_8EGCf-191" value="Comentario_Mov" style="ellipse;whiteSpace=wrap;html=1;align=center;fillColor=#d5e8d4;strokeColor=#82b366;" parent="WIyWlLk6GJQsqaUBKTNV-1" vertex="1">
          <mxGeometry x="520" y="1281" width="100" height="40" as="geometry" />
        </mxCell>
        <mxCell id="KiEubPg6pbGW4f_8EGCf-195" value="Regula" style="shape=rhombus;html=1;dashed=0;whiteSpace=wrap;perimeter=rhombusPerimeter;fillColor=#fff2cc;strokeColor=#d6b656;fontSize=8;" parent="WIyWlLk6GJQsqaUBKTNV-1" vertex="1">
          <mxGeometry x="310" y="856" width="60" height="50" as="geometry" />
        </mxCell>
        <mxCell id="KiEubPg6pbGW4f_8EGCf-196" value="" style="endArrow=none;html=1;rounded=0;exitX=0.5;exitY=1;exitDx=0;exitDy=0;entryX=0.5;entryY=0;entryDx=0;entryDy=0;" parent="WIyWlLk6GJQsqaUBKTNV-1" source="KiEubPg6pbGW4f_8EGCf-74" target="KiEubPg6pbGW4f_8EGCf-195" edge="1">
          <mxGeometry relative="1" as="geometry">
            <mxPoint x="380" y="871" as="sourcePoint" />
            <mxPoint x="540" y="871" as="targetPoint" />
          </mxGeometry>
        </mxCell>
        <mxCell id="KiEubPg6pbGW4f_8EGCf-203" value="1:1" style="edgeLabel;html=1;align=center;verticalAlign=middle;resizable=0;points=[];" parent="KiEubPg6pbGW4f_8EGCf-196" vertex="1" connectable="0">
          <mxGeometry x="0.0788" relative="1" as="geometry">
            <mxPoint as="offset" />
          </mxGeometry>
        </mxCell>
        <mxCell id="KiEubPg6pbGW4f_8EGCf-197" value="" style="endArrow=none;html=1;rounded=0;exitX=0.5;exitY=1;exitDx=0;exitDy=0;entryX=0.5;entryY=0;entryDx=0;entryDy=0;" parent="WIyWlLk6GJQsqaUBKTNV-1" source="KiEubPg6pbGW4f_8EGCf-75" target="KiEubPg6pbGW4f_8EGCf-199" edge="1">
          <mxGeometry relative="1" as="geometry">
            <mxPoint x="350" y="811" as="sourcePoint" />
            <mxPoint x="430" y="866" as="targetPoint" />
          </mxGeometry>
        </mxCell>
        <mxCell id="KiEubPg6pbGW4f_8EGCf-204" value="N:M" style="edgeLabel;html=1;align=center;verticalAlign=middle;resizable=0;points=[];" parent="KiEubPg6pbGW4f_8EGCf-197" vertex="1" connectable="0">
          <mxGeometry x="0.0182" relative="1" as="geometry">
            <mxPoint as="offset" />
          </mxGeometry>
        </mxCell>
        <mxCell id="KiEubPg6pbGW4f_8EGCf-198" value="" style="endArrow=none;html=1;rounded=0;exitX=0.5;exitY=1;exitDx=0;exitDy=0;entryX=0.5;entryY=0;entryDx=0;entryDy=0;" parent="WIyWlLk6GJQsqaUBKTNV-1" source="KiEubPg6pbGW4f_8EGCf-195" target="KiEubPg6pbGW4f_8EGCf-180" edge="1">
          <mxGeometry relative="1" as="geometry">
            <mxPoint x="510" y="811" as="sourcePoint" />
            <mxPoint x="430" y="866" as="targetPoint" />
          </mxGeometry>
        </mxCell>
        <mxCell id="KiEubPg6pbGW4f_8EGCf-201" value="1:N" style="edgeLabel;html=1;align=center;verticalAlign=middle;resizable=0;points=[];" parent="KiEubPg6pbGW4f_8EGCf-198" vertex="1" connectable="0">
          <mxGeometry x="0.0099" relative="1" as="geometry">
            <mxPoint as="offset" />
          </mxGeometry>
        </mxCell>
        <mxCell id="KiEubPg6pbGW4f_8EGCf-199" value="Juega" style="shape=rhombus;html=1;dashed=0;whiteSpace=wrap;perimeter=rhombusPerimeter;fillColor=#fff2cc;strokeColor=#d6b656;fontSize=8;" parent="WIyWlLk6GJQsqaUBKTNV-1" vertex="1">
          <mxGeometry x="470" y="856" width="60" height="50" as="geometry" />
        </mxCell>
        <mxCell id="KiEubPg6pbGW4f_8EGCf-200" value="" style="endArrow=none;html=1;rounded=0;exitX=0.5;exitY=1;exitDx=0;exitDy=0;entryX=0.5;entryY=0;entryDx=0;entryDy=0;" parent="WIyWlLk6GJQsqaUBKTNV-1" source="KiEubPg6pbGW4f_8EGCf-199" target="KiEubPg6pbGW4f_8EGCf-180" edge="1">
          <mxGeometry relative="1" as="geometry">
            <mxPoint x="510" y="811" as="sourcePoint" />
            <mxPoint x="510" y="866" as="targetPoint" />
          </mxGeometry>
        </mxCell>
        <mxCell id="KiEubPg6pbGW4f_8EGCf-202" value="1:N" style="edgeLabel;html=1;align=center;verticalAlign=middle;resizable=0;points=[];" parent="KiEubPg6pbGW4f_8EGCf-200" vertex="1" connectable="0">
          <mxGeometry x="-0.0214" y="2" relative="1" as="geometry">
            <mxPoint as="offset" />
          </mxGeometry>
        </mxCell>
        <mxCell id="KiEubPg6pbGW4f_8EGCf-205" value="" style="endArrow=none;html=1;rounded=0;exitX=1;exitY=0.5;exitDx=0;exitDy=0;" parent="WIyWlLk6GJQsqaUBKTNV-1" source="KiEubPg6pbGW4f_8EGCf-180" edge="1">
          <mxGeometry relative="1" as="geometry">
            <mxPoint x="470" y="991" as="sourcePoint" />
            <mxPoint x="600" y="975" as="targetPoint" />
          </mxGeometry>
        </mxCell>
        <mxCell id="KiEubPg6pbGW4f_8EGCf-206" value="" style="endArrow=none;html=1;rounded=0;" parent="WIyWlLk6GJQsqaUBKTNV-1" edge="1">
          <mxGeometry relative="1" as="geometry">
            <mxPoint x="600" y="1014.5" as="sourcePoint" />
            <mxPoint x="600" y="935.5" as="targetPoint" />
          </mxGeometry>
        </mxCell>
        <mxCell id="KiEubPg6pbGW4f_8EGCf-207" value="" style="endArrow=none;html=1;rounded=0;entryX=0;entryY=0.5;entryDx=0;entryDy=0;" parent="WIyWlLk6GJQsqaUBKTNV-1" target="KiEubPg6pbGW4f_8EGCf-182" edge="1">
          <mxGeometry relative="1" as="geometry">
            <mxPoint x="600" y="935" as="sourcePoint" />
            <mxPoint x="610" y="951" as="targetPoint" />
          </mxGeometry>
        </mxCell>
        <mxCell id="KiEubPg6pbGW4f_8EGCf-208" value="" style="endArrow=none;html=1;rounded=0;entryX=0;entryY=0.5;entryDx=0;entryDy=0;" parent="WIyWlLk6GJQsqaUBKTNV-1" edge="1">
          <mxGeometry relative="1" as="geometry">
            <mxPoint x="600" y="974.9300000000001" as="sourcePoint" />
            <mxPoint x="640" y="974.9300000000001" as="targetPoint" />
          </mxGeometry>
        </mxCell>
        <mxCell id="KiEubPg6pbGW4f_8EGCf-209" value="" style="endArrow=none;html=1;rounded=0;entryX=0;entryY=0.5;entryDx=0;entryDy=0;" parent="WIyWlLk6GJQsqaUBKTNV-1" edge="1">
          <mxGeometry relative="1" as="geometry">
            <mxPoint x="600" y="1014.9300000000001" as="sourcePoint" />
            <mxPoint x="640" y="1014.9300000000001" as="targetPoint" />
          </mxGeometry>
        </mxCell>
        <mxCell id="KiEubPg6pbGW4f_8EGCf-211" value="Descompone" style="shape=rhombus;html=1;dashed=0;whiteSpace=wrap;perimeter=rhombusPerimeter;fillColor=#fff2cc;strokeColor=#d6b656;fontSize=8;" parent="WIyWlLk6GJQsqaUBKTNV-1" vertex="1">
          <mxGeometry x="390" y="1035" width="60" height="50" as="geometry" />
        </mxCell>
        <mxCell id="KiEubPg6pbGW4f_8EGCf-212" value="" style="endArrow=none;html=1;rounded=0;entryX=0;entryY=0.5;entryDx=0;entryDy=0;exitX=1;exitY=0.5;exitDx=0;exitDy=0;" parent="WIyWlLk6GJQsqaUBKTNV-1" source="KiEubPg6pbGW4f_8EGCf-221" target="KiEubPg6pbGW4f_8EGCf-180" edge="1">
          <mxGeometry relative="1" as="geometry">
            <mxPoint x="250" y="975" as="sourcePoint" />
            <mxPoint x="450" y="1071" as="targetPoint" />
          </mxGeometry>
        </mxCell>
        <mxCell id="KiEubPg6pbGW4f_8EGCf-229" value="0:M" style="edgeLabel;html=1;align=center;verticalAlign=middle;resizable=0;points=[];" parent="KiEubPg6pbGW4f_8EGCf-212" vertex="1" connectable="0">
          <mxGeometry x="0.0186" y="-1" relative="1" as="geometry">
            <mxPoint as="offset" />
          </mxGeometry>
        </mxCell>
        <mxCell id="KiEubPg6pbGW4f_8EGCf-213" value="" style="endArrow=none;html=1;rounded=0;exitX=0.5;exitY=1;exitDx=0;exitDy=0;entryX=0.5;entryY=0;entryDx=0;entryDy=0;" parent="WIyWlLk6GJQsqaUBKTNV-1" source="KiEubPg6pbGW4f_8EGCf-180" target="KiEubPg6pbGW4f_8EGCf-211" edge="1">
          <mxGeometry relative="1" as="geometry">
            <mxPoint x="305" y="1053" as="sourcePoint" />
            <mxPoint x="430" y="1010" as="targetPoint" />
          </mxGeometry>
        </mxCell>
        <mxCell id="KiEubPg6pbGW4f_8EGCf-258" value="1:N" style="edgeLabel;html=1;align=center;verticalAlign=middle;resizable=0;points=[];" parent="KiEubPg6pbGW4f_8EGCf-213" vertex="1" connectable="0">
          <mxGeometry x="-0.0221" relative="1" as="geometry">
            <mxPoint as="offset" />
          </mxGeometry>
        </mxCell>
        <mxCell id="KiEubPg6pbGW4f_8EGCf-215" value="" style="endArrow=none;html=1;rounded=0;exitX=0.5;exitY=1;exitDx=0;exitDy=0;entryX=0.5;entryY=0;entryDx=0;entryDy=0;" parent="WIyWlLk6GJQsqaUBKTNV-1" source="KiEubPg6pbGW4f_8EGCf-211" target="KiEubPg6pbGW4f_8EGCf-181" edge="1">
          <mxGeometry relative="1" as="geometry">
            <mxPoint x="460" y="1080" as="sourcePoint" />
            <mxPoint x="460" y="1121" as="targetPoint" />
          </mxGeometry>
        </mxCell>
        <mxCell id="KiEubPg6pbGW4f_8EGCf-257" value="N:M" style="edgeLabel;html=1;align=center;verticalAlign=middle;resizable=0;points=[];" parent="KiEubPg6pbGW4f_8EGCf-215" vertex="1" connectable="0">
          <mxGeometry x="-0.1458" relative="1" as="geometry">
            <mxPoint as="offset" />
          </mxGeometry>
        </mxCell>
        <mxCell id="KiEubPg6pbGW4f_8EGCf-219" value="Sala" style="shape=ext;margin=3;double=1;whiteSpace=wrap;html=1;align=center;fillColor=#dae8fc;strokeColor=#6c8ebf;" parent="WIyWlLk6GJQsqaUBKTNV-1" vertex="1">
          <mxGeometry x="-10" y="950" width="120" height="50" as="geometry" />
        </mxCell>
        <mxCell id="KiEubPg6pbGW4f_8EGCf-221" value="Celebra" style="shape=rhombus;html=1;dashed=0;whiteSpace=wrap;perimeter=rhombusPerimeter;fillColor=#fff2cc;strokeColor=#d6b656;fontSize=8;" parent="WIyWlLk6GJQsqaUBKTNV-1" vertex="1">
          <mxGeometry x="210" y="950" width="60" height="50" as="geometry" />
        </mxCell>
        <mxCell id="KiEubPg6pbGW4f_8EGCf-222" value="" style="endArrow=none;html=1;rounded=0;entryX=0;entryY=0.5;entryDx=0;entryDy=0;exitX=1;exitY=0.5;exitDx=0;exitDy=0;" parent="WIyWlLk6GJQsqaUBKTNV-1" source="KiEubPg6pbGW4f_8EGCf-219" target="KiEubPg6pbGW4f_8EGCf-221" edge="1">
          <mxGeometry relative="1" as="geometry">
            <mxPoint x="280" y="985" as="sourcePoint" />
            <mxPoint x="370" y="985" as="targetPoint" />
          </mxGeometry>
        </mxCell>
        <mxCell id="KiEubPg6pbGW4f_8EGCf-228" value="0:N" style="edgeLabel;html=1;align=center;verticalAlign=middle;resizable=0;points=[];" parent="KiEubPg6pbGW4f_8EGCf-222" vertex="1" connectable="0">
          <mxGeometry x="0.0473" relative="1" as="geometry">
            <mxPoint as="offset" />
          </mxGeometry>
        </mxCell>
        <mxCell id="KiEubPg6pbGW4f_8EGCf-223" value="Reserva" style="shape=rhombus;html=1;dashed=0;whiteSpace=wrap;perimeter=rhombusPerimeter;fillColor=#fff2cc;strokeColor=#d6b656;fontSize=8;" parent="WIyWlLk6GJQsqaUBKTNV-1" vertex="1">
          <mxGeometry x="20" y="746" width="60" height="50" as="geometry" />
        </mxCell>
        <mxCell id="KiEubPg6pbGW4f_8EGCf-224" value="" style="endArrow=none;html=1;rounded=0;exitX=0.5;exitY=0;exitDx=0;exitDy=0;entryX=0.5;entryY=1;entryDx=0;entryDy=0;" parent="WIyWlLk6GJQsqaUBKTNV-1" source="KiEubPg6pbGW4f_8EGCf-219" target="KiEubPg6pbGW4f_8EGCf-223" edge="1">
          <mxGeometry relative="1" as="geometry">
            <mxPoint x="90" y="851" as="sourcePoint" />
            <mxPoint x="250" y="851" as="targetPoint" />
          </mxGeometry>
        </mxCell>
        <mxCell id="KiEubPg6pbGW4f_8EGCf-226" value="0:N" style="edgeLabel;html=1;align=center;verticalAlign=middle;resizable=0;points=[];" parent="KiEubPg6pbGW4f_8EGCf-224" vertex="1" connectable="0">
          <mxGeometry x="-0.0352" relative="1" as="geometry">
            <mxPoint as="offset" />
          </mxGeometry>
        </mxCell>
        <mxCell id="KiEubPg6pbGW4f_8EGCf-225" value="" style="endArrow=none;html=1;rounded=0;exitX=0.5;exitY=0;exitDx=0;exitDy=0;entryX=0.5;entryY=1;entryDx=0;entryDy=0;" parent="WIyWlLk6GJQsqaUBKTNV-1" source="KiEubPg6pbGW4f_8EGCf-223" target="KiEubPg6pbGW4f_8EGCf-88" edge="1">
          <mxGeometry relative="1" as="geometry">
            <mxPoint x="60" y="960" as="sourcePoint" />
            <mxPoint x="60" y="806" as="targetPoint" />
          </mxGeometry>
        </mxCell>
        <mxCell id="KiEubPg6pbGW4f_8EGCf-227" value="1:M" style="edgeLabel;html=1;align=center;verticalAlign=middle;resizable=0;points=[];" parent="KiEubPg6pbGW4f_8EGCf-225" vertex="1" connectable="0">
          <mxGeometry x="0.0974" relative="1" as="geometry">
            <mxPoint as="offset" />
          </mxGeometry>
        </mxCell>
        <mxCell id="KiEubPg6pbGW4f_8EGCf-230" value="&lt;span style=&quot;border-bottom: 1px dotted&quot;&gt;Núm_Sala&lt;/span&gt;" style="ellipse;whiteSpace=wrap;html=1;align=center;fillColor=#f8cecc;strokeColor=#b85450;" parent="WIyWlLk6GJQsqaUBKTNV-1" vertex="1">
          <mxGeometry x="-190" y="914" width="100" height="40" as="geometry" />
        </mxCell>
        <mxCell id="KiEubPg6pbGW4f_8EGCf-238" value="" style="endArrow=none;html=1;rounded=0;entryX=0;entryY=0.5;entryDx=0;entryDy=0;" parent="WIyWlLk6GJQsqaUBKTNV-1" target="KiEubPg6pbGW4f_8EGCf-219" edge="1">
          <mxGeometry relative="1" as="geometry">
            <mxPoint x="-60" y="975" as="sourcePoint" />
            <mxPoint x="40" y="981" as="targetPoint" />
          </mxGeometry>
        </mxCell>
        <mxCell id="KiEubPg6pbGW4f_8EGCf-240" value="" style="endArrow=none;html=1;rounded=0;exitX=1;exitY=0.5;exitDx=0;exitDy=0;" parent="WIyWlLk6GJQsqaUBKTNV-1" source="KiEubPg6pbGW4f_8EGCf-230" edge="1">
          <mxGeometry relative="1" as="geometry">
            <mxPoint x="-80" y="941" as="sourcePoint" />
            <mxPoint x="-60" y="934" as="targetPoint" />
          </mxGeometry>
        </mxCell>
        <mxCell id="KiEubPg6pbGW4f_8EGCf-241" value="" style="endArrow=none;html=1;rounded=0;exitX=1;exitY=0.5;exitDx=0;exitDy=0;" parent="WIyWlLk6GJQsqaUBKTNV-1" edge="1">
          <mxGeometry relative="1" as="geometry">
            <mxPoint x="-90" y="974.8299999999999" as="sourcePoint" />
            <mxPoint x="-60" y="974.8299999999999" as="targetPoint" />
          </mxGeometry>
        </mxCell>
        <mxCell id="KiEubPg6pbGW4f_8EGCf-242" value="" style="endArrow=none;html=1;rounded=0;exitX=1;exitY=0.5;exitDx=0;exitDy=0;" parent="WIyWlLk6GJQsqaUBKTNV-1" edge="1">
          <mxGeometry relative="1" as="geometry">
            <mxPoint x="-90" y="1015" as="sourcePoint" />
            <mxPoint x="-60" y="1015" as="targetPoint" />
          </mxGeometry>
        </mxCell>
        <mxCell id="KiEubPg6pbGW4f_8EGCf-243" value="" style="endArrow=none;html=1;rounded=0;" parent="WIyWlLk6GJQsqaUBKTNV-1" edge="1">
          <mxGeometry relative="1" as="geometry">
            <mxPoint x="-60" y="934" as="sourcePoint" />
            <mxPoint x="-60" y="1014" as="targetPoint" />
          </mxGeometry>
        </mxCell>
        <mxCell id="KiEubPg6pbGW4f_8EGCf-244" value="" style="endArrow=none;html=1;rounded=0;exitX=0.5;exitY=1;exitDx=0;exitDy=0;" parent="WIyWlLk6GJQsqaUBKTNV-1" source="KiEubPg6pbGW4f_8EGCf-181" edge="1">
          <mxGeometry relative="1" as="geometry">
            <mxPoint x="340" y="1221" as="sourcePoint" />
            <mxPoint x="420" y="1241" as="targetPoint" />
          </mxGeometry>
        </mxCell>
        <mxCell id="KiEubPg6pbGW4f_8EGCf-245" value="" style="endArrow=none;html=1;rounded=0;" parent="WIyWlLk6GJQsqaUBKTNV-1" edge="1">
          <mxGeometry relative="1" as="geometry">
            <mxPoint x="270" y="1241" as="sourcePoint" />
            <mxPoint x="570" y="1241" as="targetPoint" />
          </mxGeometry>
        </mxCell>
        <mxCell id="KiEubPg6pbGW4f_8EGCf-246" value="" style="endArrow=none;html=1;rounded=0;exitX=0.5;exitY=0;exitDx=0;exitDy=0;" parent="WIyWlLk6GJQsqaUBKTNV-1" edge="1">
          <mxGeometry relative="1" as="geometry">
            <mxPoint x="270" y="1281" as="sourcePoint" />
            <mxPoint x="270" y="1241" as="targetPoint" />
          </mxGeometry>
        </mxCell>
        <mxCell id="KiEubPg6pbGW4f_8EGCf-247" value="" style="endArrow=none;html=1;rounded=0;exitX=0.5;exitY=0;exitDx=0;exitDy=0;" parent="WIyWlLk6GJQsqaUBKTNV-1" edge="1">
          <mxGeometry relative="1" as="geometry">
            <mxPoint x="370" y="1281" as="sourcePoint" />
            <mxPoint x="370" y="1241" as="targetPoint" />
          </mxGeometry>
        </mxCell>
        <mxCell id="KiEubPg6pbGW4f_8EGCf-248" value="" style="endArrow=none;html=1;rounded=0;exitX=0.5;exitY=0;exitDx=0;exitDy=0;" parent="WIyWlLk6GJQsqaUBKTNV-1" edge="1">
          <mxGeometry relative="1" as="geometry">
            <mxPoint x="470" y="1281" as="sourcePoint" />
            <mxPoint x="470" y="1241" as="targetPoint" />
          </mxGeometry>
        </mxCell>
        <mxCell id="KiEubPg6pbGW4f_8EGCf-249" value="" style="endArrow=none;html=1;rounded=0;exitX=0.5;exitY=0;exitDx=0;exitDy=0;" parent="WIyWlLk6GJQsqaUBKTNV-1" edge="1">
          <mxGeometry relative="1" as="geometry">
            <mxPoint x="569.88" y="1281" as="sourcePoint" />
            <mxPoint x="569.88" y="1241" as="targetPoint" />
          </mxGeometry>
        </mxCell>
        <mxCell id="KiEubPg6pbGW4f_8EGCf-263" value="&lt;div&gt;&lt;b&gt;Personas &lt;/b&gt;(&lt;u&gt;DNI&lt;/u&gt;, Nombre, Apellido_1, Apellido_2, Fecha_Nacimiento, &lt;u&gt;ID_Federación*&lt;/u&gt;)&lt;/div&gt;&lt;div&gt;&lt;b&gt;Teléfonos_Personas &lt;/b&gt;(&lt;u&gt;DNI*, Teléfonos&lt;/u&gt;)&lt;/div&gt;&lt;div&gt;&lt;b&gt;Jugadores &lt;/b&gt;(&lt;u&gt;ID_Federado&lt;/u&gt;, &lt;u&gt;DNI_Jugador*&lt;/u&gt;, Licencia_c_Árb, Año_Federado, Pos_Rank_Nac )&lt;br&gt;&lt;/div&gt;&lt;div&gt;&lt;b&gt;Árbitros &lt;/b&gt;(&lt;u&gt;ID_Colegiado&lt;/u&gt;, &lt;u&gt;DNI_Árbitro*&lt;/u&gt;, Núm_Años_Árb )&lt;br&gt;&lt;/div&gt;&lt;div&gt;&lt;b&gt;Federaciones &lt;/b&gt;(&lt;u&gt;ID_Federación&lt;/u&gt;, Nombre_Región, Fecha_Fundación, Núm_Total_Jugadores, Núm_Total_Árbitros)&lt;/div&gt;&lt;div&gt;&lt;b&gt;Hoteles &lt;/b&gt;(&lt;u&gt;ID_Hotel&lt;/u&gt;, Nombre_Hotel, Categoría, Dirección, Núm_Total_Habitaciones)&lt;/div&gt;&lt;div&gt;&lt;b&gt;Teléfonos_Hotel &lt;/b&gt;(&lt;u&gt;ID_Hotel*&lt;/u&gt;, &lt;u&gt;Teléfonos&lt;/u&gt;)&lt;/div&gt;&lt;div&gt;&lt;b&gt;Hospedan &lt;/b&gt;(&lt;u&gt;DNI*&lt;/u&gt;, &lt;u&gt;ID_Hotel*&lt;/u&gt;, &lt;u&gt;Núm_Habitación&lt;/u&gt;, &lt;u&gt;Fecha_Entrada_Habitación&lt;/u&gt;, Fecha_Salida)&lt;/div&gt;&lt;div&gt;&lt;b&gt;Partidas &lt;/b&gt;(&lt;u&gt;ID_Partida&lt;/u&gt;, Fecha_Hora, Duración, &lt;u&gt;ID_Colegiado*&lt;/u&gt;)&lt;/div&gt;&lt;div&gt;&lt;b&gt;Jugar_Partidas &lt;/b&gt;(&lt;u&gt;ID_Federado*&lt;/u&gt;, &lt;u&gt;ID_Partida*&lt;/u&gt;, Color_Fichas, Puesto_Jugador)&lt;/div&gt;&lt;div&gt;&lt;b&gt;Movimientos&lt;/b&gt; (&lt;u&gt;Núm_Orden_Jugada&lt;/u&gt;, &lt;u&gt;ID_Federado*&lt;/u&gt;, Núm_Casilla_Inicial, Núm_Casilla_Final, Comentario_Movimiento)&lt;/div&gt;&lt;div&gt;&lt;b&gt;Almacenar_Movimientos&lt;/b&gt; &lt;u&gt;(ID_Partida*&lt;/u&gt;, &lt;u&gt;Núm_Orden_Jugada*&lt;/u&gt;, Jugador_en_Partida)&lt;br&gt;&lt;/div&gt;&lt;div&gt;&lt;b&gt;Salas&lt;/b&gt; (&lt;u&gt;Núm_Sala&lt;/u&gt;, Capacidad_Sala, Descripción)&lt;/div&gt;&lt;div&gt;&lt;b&gt;Partidas_en_Salas&lt;/b&gt; (&lt;u&gt;ID_Partida*&lt;/u&gt;, &lt;u&gt;Núm_Sala*&lt;/u&gt;)&lt;/div&gt;&lt;div&gt;&lt;b&gt;Hoteles_Salas&lt;/b&gt; (&lt;u&gt;ID_Hotel*&lt;/u&gt;, &lt;u&gt;Núm_Sala*&lt;/u&gt;)&lt;br&gt;&lt;/div&gt;&lt;div&gt;&lt;br&gt;&lt;/div&gt;&lt;div&gt;&lt;br&gt;&lt;/div&gt;" style="text;html=1;strokeColor=none;fillColor=none;align=left;verticalAlign=top;whiteSpace=wrap;rounded=0;" parent="WIyWlLk6GJQsqaUBKTNV-1" vertex="1">
          <mxGeometry x="678" y="180" width="670" height="220" as="geometry" />
        </mxCell>
        <mxCell id="KiEubPg6pbGW4f_8EGCf-265" value="&lt;span style=&quot;border-bottom: 1px dotted&quot;&gt;Núm_Orden_Jug&lt;br&gt;&lt;/span&gt;" style="ellipse;whiteSpace=wrap;html=1;align=center;fillColor=#f8cecc;strokeColor=#b85450;" parent="WIyWlLk6GJQsqaUBKTNV-1" vertex="1">
          <mxGeometry x="220" y="1281" width="100" height="40" as="geometry" />
        </mxCell>
        <mxCell id="J0A0JXOmMFmHOFgfPp1u-0" value="Fecha_Hora" style="ellipse;whiteSpace=wrap;html=1;align=center;fillColor=#d5e8d4;strokeColor=#82b366;" parent="WIyWlLk6GJQsqaUBKTNV-1" vertex="1">
          <mxGeometry x="640" y="955" width="100" height="40" as="geometry" />
        </mxCell>
        <mxCell id="yoZsHSk7lSORZ-dH4_gG-0" value="Año_Federado" style="ellipse;whiteSpace=wrap;html=1;align=center;fillColor=#d5e8d4;strokeColor=#82b366;" vertex="1" parent="WIyWlLk6GJQsqaUBKTNV-1">
          <mxGeometry x="630" y="585" width="100" height="40" as="geometry" />
        </mxCell>
        <mxCell id="yoZsHSk7lSORZ-dH4_gG-1" value="Pos_Rank_Nac" style="ellipse;whiteSpace=wrap;html=1;align=center;fillColor=#d5e8d4;strokeColor=#82b366;" vertex="1" parent="WIyWlLk6GJQsqaUBKTNV-1">
          <mxGeometry x="630" y="625" width="100" height="40" as="geometry" />
        </mxCell>
        <mxCell id="yoZsHSk7lSORZ-dH4_gG-6" value="Color_Fichas" style="ellipse;whiteSpace=wrap;html=1;align=center;fillColor=#d5e8d4;strokeColor=#82b366;" vertex="1" parent="WIyWlLk6GJQsqaUBKTNV-1">
          <mxGeometry x="550" y="841" width="100" height="40" as="geometry" />
        </mxCell>
        <mxCell id="yoZsHSk7lSORZ-dH4_gG-7" value="Puesto" style="ellipse;whiteSpace=wrap;html=1;align=center;fillColor=#d5e8d4;strokeColor=#82b366;" vertex="1" parent="WIyWlLk6GJQsqaUBKTNV-1">
          <mxGeometry x="550" y="881" width="100" height="40" as="geometry" />
        </mxCell>
        <mxCell id="yoZsHSk7lSORZ-dH4_gG-8" value="Licencia_c_Árb" style="ellipse;whiteSpace=wrap;html=1;align=center;fillColor=#d5e8d4;strokeColor=#82b366;" vertex="1" parent="WIyWlLk6GJQsqaUBKTNV-1">
          <mxGeometry x="530" y="665" width="100" height="40" as="geometry" />
        </mxCell>
        <mxCell id="yoZsHSk7lSORZ-dH4_gG-9" value="ID_Federado" style="ellipse;whiteSpace=wrap;html=1;align=center;fillColor=#f8cecc;strokeColor=#b85450;" vertex="1" parent="WIyWlLk6GJQsqaUBKTNV-1">
          <mxGeometry x="530" y="585" width="100" height="40" as="geometry" />
        </mxCell>
        <mxCell id="yoZsHSk7lSORZ-dH4_gG-10" value="DNI_Jugador" style="ellipse;whiteSpace=wrap;html=1;align=center;fillColor=#d5e8d4;strokeColor=#82b366;" vertex="1" parent="WIyWlLk6GJQsqaUBKTNV-1">
          <mxGeometry x="530" y="625" width="100" height="40" as="geometry" />
        </mxCell>
        <mxCell id="yoZsHSk7lSORZ-dH4_gG-13" value="ID_Colegiado" style="ellipse;whiteSpace=wrap;html=1;align=center;fillColor=#f8cecc;strokeColor=#b85450;" vertex="1" parent="WIyWlLk6GJQsqaUBKTNV-1">
          <mxGeometry x="100" y="716" width="100" height="40" as="geometry" />
        </mxCell>
        <mxCell id="yoZsHSk7lSORZ-dH4_gG-14" value="Núm_Años_Árb" style="ellipse;whiteSpace=wrap;html=1;align=center;fillColor=#d5e8d4;strokeColor=#82b366;" vertex="1" parent="WIyWlLk6GJQsqaUBKTNV-1">
          <mxGeometry x="100" y="796" width="100" height="40" as="geometry" />
        </mxCell>
        <mxCell id="yoZsHSk7lSORZ-dH4_gG-16" value="DNI_Árbitro" style="ellipse;whiteSpace=wrap;html=1;align=center;fillColor=#d5e8d4;strokeColor=#82b366;" vertex="1" parent="WIyWlLk6GJQsqaUBKTNV-1">
          <mxGeometry x="100" y="756" width="100" height="40" as="geometry" />
        </mxCell>
        <mxCell id="yoZsHSk7lSORZ-dH4_gG-22" value="" style="endArrow=none;html=1;rounded=0;" edge="1" parent="WIyWlLk6GJQsqaUBKTNV-1">
          <mxGeometry relative="1" as="geometry">
            <mxPoint x="239.86" y="815.5" as="sourcePoint" />
            <mxPoint x="239.86" y="736.5" as="targetPoint" />
          </mxGeometry>
        </mxCell>
        <mxCell id="yoZsHSk7lSORZ-dH4_gG-25" value="Mueve" style="shape=rhombus;html=1;dashed=0;whiteSpace=wrap;perimeter=rhombusPerimeter;fillColor=#fff2cc;strokeColor=#d6b656;fontSize=8;" vertex="1" parent="WIyWlLk6GJQsqaUBKTNV-1">
          <mxGeometry x="770" y="751" width="60" height="50" as="geometry" />
        </mxCell>
        <mxCell id="yoZsHSk7lSORZ-dH4_gG-26" value="" style="endArrow=none;html=1;rounded=0;exitX=1;exitY=0.5;exitDx=0;exitDy=0;entryX=0;entryY=0.5;entryDx=0;entryDy=0;" edge="1" parent="WIyWlLk6GJQsqaUBKTNV-1" source="KiEubPg6pbGW4f_8EGCf-199" target="yoZsHSk7lSORZ-dH4_gG-6">
          <mxGeometry relative="1" as="geometry">
            <mxPoint x="480" y="840" as="sourcePoint" />
            <mxPoint x="640" y="840" as="targetPoint" />
          </mxGeometry>
        </mxCell>
        <mxCell id="yoZsHSk7lSORZ-dH4_gG-27" value="" style="endArrow=none;html=1;rounded=0;exitX=1;exitY=0.5;exitDx=0;exitDy=0;entryX=0;entryY=0.5;entryDx=0;entryDy=0;" edge="1" parent="WIyWlLk6GJQsqaUBKTNV-1" source="KiEubPg6pbGW4f_8EGCf-199" target="yoZsHSk7lSORZ-dH4_gG-7">
          <mxGeometry relative="1" as="geometry">
            <mxPoint x="540" y="891" as="sourcePoint" />
            <mxPoint x="560" y="871" as="targetPoint" />
          </mxGeometry>
        </mxCell>
        <mxCell id="yoZsHSk7lSORZ-dH4_gG-28" value="" style="endArrow=none;html=1;rounded=0;exitX=1;exitY=0.5;exitDx=0;exitDy=0;entryX=0;entryY=0.5;entryDx=0;entryDy=0;" edge="1" parent="WIyWlLk6GJQsqaUBKTNV-1" source="KiEubPg6pbGW4f_8EGCf-75" target="yoZsHSk7lSORZ-dH4_gG-25">
          <mxGeometry relative="1" as="geometry">
            <mxPoint x="580" y="830" as="sourcePoint" />
            <mxPoint x="740" y="830" as="targetPoint" />
          </mxGeometry>
        </mxCell>
        <mxCell id="yoZsHSk7lSORZ-dH4_gG-34" value="1:1" style="edgeLabel;html=1;align=center;verticalAlign=middle;resizable=0;points=[];" vertex="1" connectable="0" parent="yoZsHSk7lSORZ-dH4_gG-28">
          <mxGeometry x="0.0024" y="1" relative="1" as="geometry">
            <mxPoint as="offset" />
          </mxGeometry>
        </mxCell>
        <mxCell id="yoZsHSk7lSORZ-dH4_gG-29" value="" style="endArrow=none;html=1;rounded=0;exitX=0.5;exitY=1;exitDx=0;exitDy=0;" edge="1" parent="WIyWlLk6GJQsqaUBKTNV-1" source="yoZsHSk7lSORZ-dH4_gG-25">
          <mxGeometry relative="1" as="geometry">
            <mxPoint x="660" y="980" as="sourcePoint" />
            <mxPoint x="800" y="1140" as="targetPoint" />
          </mxGeometry>
        </mxCell>
        <mxCell id="yoZsHSk7lSORZ-dH4_gG-35" value="N:M" style="edgeLabel;html=1;align=center;verticalAlign=middle;resizable=0;points=[];" vertex="1" connectable="0" parent="yoZsHSk7lSORZ-dH4_gG-29">
          <mxGeometry x="-0.0403" relative="1" as="geometry">
            <mxPoint as="offset" />
          </mxGeometry>
        </mxCell>
        <mxCell id="yoZsHSk7lSORZ-dH4_gG-32" value="" style="endArrow=none;html=1;rounded=0;exitX=1;exitY=0.5;exitDx=0;exitDy=0;" edge="1" parent="WIyWlLk6GJQsqaUBKTNV-1" source="KiEubPg6pbGW4f_8EGCf-181">
          <mxGeometry relative="1" as="geometry">
            <mxPoint x="610" y="1040" as="sourcePoint" />
            <mxPoint x="800" y="1141" as="targetPoint" />
          </mxGeometry>
        </mxCell>
        <mxCell id="yoZsHSk7lSORZ-dH4_gG-36" value="" style="endArrow=none;html=1;rounded=0;entryX=0.5;entryY=1;entryDx=0;entryDy=0;" edge="1" parent="WIyWlLk6GJQsqaUBKTNV-1" target="yoZsHSk7lSORZ-dH4_gG-8">
          <mxGeometry relative="1" as="geometry">
            <mxPoint x="560" y="750" as="sourcePoint" />
            <mxPoint x="710" y="650" as="targetPoint" />
          </mxGeometry>
        </mxCell>
      </root>
    </mxGraphModel>
  </diagram>
</mxfile>
